<svg id="Layer_1" data-name="Layer 1" xmlns="http://www.w3.org/2000/svg" viewBox="0 0 574 574"><defs><style>.cls-1{fill:#4b6b3c;}.cls-2{fill:#f9a621;}</style></defs><circle class="cls-1" cx="287" cy="287" r="287"/><path class="cls-2" d="M381.21,387.67c-16.35-76-51.2-124-83.43-124s-67.09,48.06-83.43,124Z" transform="translate(-10.78 -193.7)"/><path class="cls-2" d="M204.83,480.7a466,466,0,0,0,4.14,62H386.58a464.81,464.81,0,0,0,4.14-62,466.15,466.15,0,0,0-4.14-62H209A464.92,464.92,0,0,0,204.83,480.7Z" transform="translate(-10.78 -193.7)"/><path class="cls-2" d="M214.35,573.73c16.34,76,51.19,124,83.43,124s67.08-48.07,83.43-124Z" transform="translate(-10.78 -193.7)"/><path class="cls-2" d="M412.93,387.67h97.59q-2.75-6.23-5.84-12.3t-6.54-11.94q-3.43-5.87-7.22-11.54T483,340.8q-4.09-5.44-8.51-10.62t-9.13-10.1q-4.69-4.92-9.69-9.56t-10.23-9q-5.25-4.33-10.74-8.36t-11.21-7.72q-5.72-3.69-11.64-7.05t-12-6.36q-6.11-3-12.38-5.64c-4.18-1.77-8.41-3.4-12.69-4.92s-8.59-2.9-12.95-4.17-8.75-2.39-13.17-3.4C378.05,279.81,401.09,327.66,412.93,387.67Z" transform="translate(-10.78 -193.7)"/><path class="cls-2" d="M521.65,418.68H417.87a502.38,502.38,0,0,1,3.83,62,500.33,500.33,0,0,1-3.85,62H521.64a231.38,231.38,0,0,0,0-124Z" transform="translate(-10.78 -193.7)"/><path class="cls-2" d="M348.66,707.47q6.63-1.5,13.18-3.4t13-4.16q6.42-2.28,12.69-4.92t12.38-5.64q6.11-3,12-6.36t11.64-7q5.72-3.71,11.21-7.72t10.74-8.36q5.25-4.33,10.24-9t9.7-9.56q4.71-4.92,9.12-10.1t8.52-10.62q4.11-5.43,7.88-11.1T498.17,598q3.45-5.87,6.54-11.94t5.84-12.3H413C401.09,633.75,378.05,681.6,348.66,707.47Z" transform="translate(-10.78 -193.7)"/><path class="cls-2" d="M182.62,573.73H85Q87.78,580,90.87,586T97.41,598q3.45,5.88,7.23,11.54t7.88,11.1q4.11,5.43,8.52,10.62t9.13,10.1q4.7,4.92,9.69,9.56t10.24,9q5.25,4.33,10.74,8.36t11.21,7.72q5.72,3.69,11.64,7t12,6.36q6.1,3,12.38,5.64t12.69,4.92q6.42,2.26,13,4.16t13.17,3.4C217.51,681.6,194.46,633.75,182.62,573.73Z" transform="translate(-10.78 -193.7)"/><path class="cls-2" d="M246.89,253.93c-4.42,1-8.82,2.14-13.17,3.4s-8.68,2.65-13,4.17-8.51,3.15-12.69,4.91-8.31,3.64-12.38,5.65-8.08,4.12-12,6.36S175.83,283,172,285.47s-7.55,5-11.21,7.72-7.24,5.46-10.74,8.35-6.91,5.89-10.24,9-6.56,6.27-9.7,9.55-6.18,6.65-9.12,10.1-5.78,7-8.52,10.62-5.36,7.32-7.88,11.1-4.93,7.62-7.23,11.54-4.48,7.9-6.54,11.94-4,8.15-5.84,12.3h97.59C194.46,327.66,217.51,279.81,246.89,253.93Z" transform="translate(-10.78 -193.7)"/><path class="cls-2" d="M173.85,480.7a500.45,500.45,0,0,1,3.85-62H73.91a231.38,231.38,0,0,0,0,124H177.7A501.43,501.43,0,0,1,173.85,480.7Z" transform="translate(-10.78 -193.7)"/></svg>