<svg id="Layer_1" data-name="Layer 1" xmlns="http://www.w3.org/2000/svg" viewBox="0 0 574 574"><defs><style>.cls-1{fill:#4b6b3c;}.cls-2{fill:#f9a621;}</style></defs><circle class="cls-1" cx="287" cy="287" r="287"/><path class="cls-2" d="M230.09,290.06c3.49,0,7.08,0,10.18.14,3.83.09,8,.37,12,9.2,4.75,10.5,15.09,36.83,16.41,39.5s2.27,5.81.42,9.3-2.67,5.75-5.25,8.92-5.59,6.91-8,9.24c-2.67,2.67-5.42,5.59-2.34,10.91s13.78,22.76,29.59,36.84c20.33,18.16,37.49,23.74,42.82,26.41s8.43,2.25,11.51-1.33,13.32-15.48,16.9-20.81,7.06-4.42,11.89-2.66,31.08,14.65,36.42,17.32,8.84,4,10.18,6.15,1.38,12.9-3,25.33-26.15,24.42-35.9,25.26-19,4.42-63.91-13.26c-54.16-21.33-88.32-76.81-91-80.39s-21.69-28.84-21.69-55S211,302,215.85,296.71A19.54,19.54,0,0,1,230.09,290.06Zm73.56-114.67C185,175.39,88.72,271.62,88.72,390.32a213.67,213.67,0,0,0,30.64,110.16L90.64,605.26l107-28.1a213.67,213.67,0,0,0,106,28.1c118.7,0,214.94-96.24,214.94-214.94S422.35,175.39,303.65,175.39Z" transform="translate(-16.65 -103.32)"/></svg>